<svg width="20" height="20" viewBox="0 0 20 20" fill="none" xmlns="http://www.w3.org/2000/svg">
<path d="M3.33366 1.66663H9.16699C9.60902 1.66663 10.0329 1.84222 10.3455 2.15478C10.6581 2.46734 10.8337 2.89127 10.8337 3.33329V16.6666C10.8337 17.1087 10.6581 17.5326 10.3455 17.8451C10.0329 18.1577 9.60902 18.3333 9.16699 18.3333H3.33366C2.89163 18.3333 2.46771 18.1577 2.15515 17.8451C1.84259 17.5326 1.66699 17.1087 1.66699 16.6666V3.33329C1.66699 2.89127 1.84259 2.46734 2.15515 2.15478C2.46771 1.84222 2.89163 1.66663 3.33366 1.66663V1.66663ZM3.33366 8.33329V11.6666H9.16699V8.33329H3.33366ZM3.33366 13.3333V16.6666H9.16699V13.3333H3.33366ZM3.33366 3.33329V6.66663H9.16699V3.33329H3.33366ZM14.6587 9.99996L12.5003 7.84163L13.6753 6.66663L15.8337 8.82496L17.992 6.66663L19.167 7.84163L17.0087 9.99996L19.167 12.1583L17.992 13.3333L15.8337 11.175L13.6753 13.3333L12.5003 12.1583L14.6587 9.99996Z" fill="#B9C4C1"/>
</svg>
