<svg width="20" height="20" viewBox="0 0 20 20" fill="none" xmlns="http://www.w3.org/2000/svg">
<path d="M10.833 1.66663C10.391 1.66663 9.96706 1.84222 9.6545 2.15478C9.34194 2.46734 9.16634 2.89127 9.16634 3.33329V16.6666C9.16634 17.1087 9.34194 17.5326 9.6545 17.8451C9.96706 18.1577 10.391 18.3333 10.833 18.3333H18.333V1.66663H10.833ZM16.6663 8.33329V11.6666H10.833V8.33329H16.6663ZM16.6663 13.3333V16.6666H10.833V13.3333H16.6663ZM16.6663 3.33329V6.66663H10.833V3.33329H16.6663ZM7.49967 9.16663H4.99967V6.66663H3.33301V9.16663H0.833008V10.8333H3.33301V13.3333H4.99967V10.8333H7.49967V9.16663Z" fill="#B9C4C1"/>
</svg>
