<svg width="20" height="20" viewBox="0 0 20 20" fill="none" xmlns="http://www.w3.org/2000/svg">
<path d="M9.16699 1.66663C9.60902 1.66663 10.0329 1.84222 10.3455 2.15478C10.6581 2.46734 10.8337 2.89127 10.8337 3.33329V16.6666C10.8337 17.1087 10.6581 17.5326 10.3455 17.8451C10.0329 18.1577 9.60902 18.3333 9.16699 18.3333H1.66699V1.66663H9.16699ZM3.33366 8.33329V11.6666H9.16699V8.33329H3.33366ZM3.33366 13.3333V16.6666H9.16699V13.3333H3.33366ZM3.33366 3.33329V6.66663H9.16699V3.33329H3.33366ZM12.5003 9.16663H15.0003V6.66663H16.667V9.16663H19.167V10.8333H16.667V13.3333H15.0003V10.8333H12.5003V9.16663Z" fill="#B9C4C1"/>
</svg>
