<svg width="66" height="65" viewBox="0 0 66 65" fill="none" xmlns="http://www.w3.org/2000/svg">
<path d="M0.5 3C0.5 1.34315 1.84315 0 3.5 0H27.5C29.1569 0 30.5 1.34315 30.5 3V32C30.5 33.6569 29.1569 35 27.5 35H3.5C1.84315 35 0.5 33.6569 0.5 32V3Z" fill="#F4C95D"/>
<rect x="5.5" y="8" width="20" height="19" rx="3" fill="#F4F3ED"/>
<path d="M0.5 43C0.5 41.3431 1.84315 40 3.5 40H27.5C29.1569 40 30.5 41.3431 30.5 43V62C30.5 63.6569 29.1569 65 27.5 65H3.5C1.84315 65 0.5 63.6569 0.5 62V43Z" fill="#965DF4"/>
<rect x="5.5" y="45" width="20" height="15" rx="3" fill="#F4EDEF"/>
<path d="M35.5 3C35.5 1.34315 36.8431 0 38.5 0H62.5C64.1569 0 65.5 1.34315 65.5 3V22C65.5 23.6569 64.1569 25 62.5 25H38.5C36.8431 25 35.5 23.6569 35.5 22V3Z" fill="#F45D5D"/>
<rect x="40.5" y="5" width="20" height="15" rx="3" fill="#F4EDED"/>
<path d="M35.5 33C35.5 31.3431 36.8431 30 38.5 30H62.5C64.1569 30 65.5 31.3431 65.5 33V62C65.5 63.6569 64.1569 65 62.5 65H38.5C36.8431 65 35.5 63.6569 35.5 62V33Z" fill="#5688C7"/>
<rect x="40.5" y="38" width="20" height="19" rx="3" fill="#EDF2F4"/>
</svg>
